name rise30.8019peak61.5557fall86.2505.mot
datacolumns 19
datarows 24
range 17.74493700000000 17.78326600000000
endheader
time	ground_force1_vx	ground_force1_vy	ground_force1_vz	ground_force1_px	ground_force1_py	ground_force1_pz	ground_force2_vx	ground_force2_vy	ground_force2_vz	ground_force2_px	ground_force2_py	ground_force2_pz	ground_torque1_x	ground_torque1_y	ground_torque1_z	ground_torque2_x	ground_torque2_y	ground_torque2_z	
17.74493700000000	-3.70143000000000	660.68181500000003	30.70941100000000	0.12076100000000	0.00000000000000	0.10957000000000	0.00000000000000	0.00000000000000	0.00000000000000	0.00000000000000	0.00000000000000	0.00000000000000	0.00000000000000	10.16649000000000	0.00000000000000	0.00000000000000	0.00000000000000	0.00000000000000	
17.74660600000000	-4.35005000000000	661.40020400000003	30.70016600000000	0.11969900000000	0.00000000000000	0.10959200000000	0.00000000000000	0.00000000000000	0.00000000000000	0.00000000000000	0.00000000000000	0.00000000000000	0.00000000000000	10.29250900000000	0.00000000000000	0.00000000000000	0.00000000000000	0.00000000000000	
17.74826400000000	-5.00827100000000	662.14935800000001	30.69133000000000	0.11863800000000	0.00000000000000	0.10961300000000	0.00000000000000	0.00000000000000	0.00000000000000	0.00000000000000	0.00000000000000	0.00000000000000	0.00000000000000	10.42206800000000	0.00000000000000	0.00000000000000	0.00000000000000	0.00000000000000	
17.74993200000000	-5.67579100000000	662.92999699999996	30.68296100000000	0.11757900000000	0.00000000000000	0.10963400000000	0.00000000000000	0.00000000000000	0.00000000000000	0.00000000000000	0.00000000000000	0.00000000000000	0.00000000000000	10.55506300000000	0.00000000000000	0.00000000000000	0.00000000000000	0.00000000000000	
17.75159900000000	-6.35229800000000	663.74288400000000	30.67512900000000	0.11652100000000	0.00000000000000	0.10965500000000	0.00000000000000	0.00000000000000	0.00000000000000	0.00000000000000	0.00000000000000	0.00000000000000	0.00000000000000	10.69138300000000	0.00000000000000	0.00000000000000	0.00000000000000	0.00000000000000	
17.75326900000000	-7.03746800000000	664.58882700000004	30.66791300000000	0.11546300000000	0.00000000000000	0.10967500000000	0.00000000000000	0.00000000000000	0.00000000000000	0.00000000000000	0.00000000000000	0.00000000000000	0.00000000000000	10.83091800000000	0.00000000000000	0.00000000000000	0.00000000000000	0.00000000000000	
17.75493800000000	-7.73096100000000	665.46866999999997	30.66140300000000	0.11440700000000	0.00000000000000	0.10969500000000	0.00000000000000	0.00000000000000	0.00000000000000	0.00000000000000	0.00000000000000	0.00000000000000	0.00000000000000	10.97355500000000	0.00000000000000	0.00000000000000	0.00000000000000	0.00000000000000	
17.75660400000000	-8.43243000000000	666.38328700000000	30.65569700000000	0.11335200000000	0.00000000000000	0.10971400000000	0.00000000000000	0.00000000000000	0.00000000000000	0.00000000000000	0.00000000000000	0.00000000000000	0.00000000000000	11.11918000000000	0.00000000000000	0.00000000000000	0.00000000000000	0.00000000000000	
17.75826900000000	-9.14151500000000	667.33357599999999	30.65090000000000	0.11229600000000	0.00000000000000	0.10973300000000	0.00000000000000	0.00000000000000	0.00000000000000	0.00000000000000	0.00000000000000	0.00000000000000	0.00000000000000	11.26767400000000	0.00000000000000	0.00000000000000	0.00000000000000	0.00000000000000	
17.75994000000000	-9.85784500000000	668.32045600000004	30.64712100000000	0.11124200000000	0.00000000000000	0.10975100000000	0.00000000000000	0.00000000000000	0.00000000000000	0.00000000000000	0.00000000000000	0.00000000000000	0.00000000000000	11.41891700000000	0.00000000000000	0.00000000000000	0.00000000000000	0.00000000000000	
17.76159800000000	-10.58104100000000	669.34485600000005	30.64447500000000	0.11018700000000	0.00000000000000	0.10976900000000	0.00000000000000	0.00000000000000	0.00000000000000	0.00000000000000	0.00000000000000	0.00000000000000	0.00000000000000	11.57278900000000	0.00000000000000	0.00000000000000	0.00000000000000	0.00000000000000	
17.76326600000000	-11.31071400000000	670.40771099999995	30.64307900000000	0.10913300000000	0.00000000000000	0.10978500000000	0.00000000000000	0.00000000000000	0.00000000000000	0.00000000000000	0.00000000000000	0.00000000000000	0.00000000000000	11.72916300000000	0.00000000000000	0.00000000000000	0.00000000000000	0.00000000000000	
17.76493300000000	-12.04646600000000	671.50995399999999	30.64305400000000	0.10807800000000	0.00000000000000	0.10980200000000	0.00000000000000	0.00000000000000	0.00000000000000	0.00000000000000	0.00000000000000	0.00000000000000	0.00000000000000	11.88791300000000	0.00000000000000	0.00000000000000	0.00000000000000	0.00000000000000	
17.76663800000000	-12.78789000000000	672.65250800000001	30.64452100000000	0.10702300000000	0.00000000000000	0.10981700000000	0.00000000000000	0.00000000000000	0.00000000000000	0.00000000000000	0.00000000000000	0.00000000000000	0.00000000000000	12.04890900000000	0.00000000000000	0.00000000000000	0.00000000000000	0.00000000000000	
17.76827200000000	-13.53457200000000	673.83628199999998	30.64760100000000	0.10596800000000	0.00000000000000	0.10983200000000	0.00000000000000	0.00000000000000	0.00000000000000	0.00000000000000	0.00000000000000	0.00000000000000	0.00000000000000	12.21202000000000	0.00000000000000	0.00000000000000	0.00000000000000	0.00000000000000	
17.76993200000000	-14.28609100000000	675.06215999999995	30.65241500000000	0.10491200000000	0.00000000000000	0.10984700000000	0.00000000000000	0.00000000000000	0.00000000000000	0.00000000000000	0.00000000000000	0.00000000000000	0.00000000000000	12.37710900000000	0.00000000000000	0.00000000000000	0.00000000000000	0.00000000000000	
17.77159900000000	-15.04201800000000	676.33099400000003	30.65908500000000	0.10385500000000	0.00000000000000	0.10986100000000	0.00000000000000	0.00000000000000	0.00000000000000	0.00000000000000	0.00000000000000	0.00000000000000	0.00000000000000	12.54404100000000	0.00000000000000	0.00000000000000	0.00000000000000	0.00000000000000	
17.77326700000000	-15.80191800000000	677.64359800000000	30.66772800000000	0.10279700000000	0.00000000000000	0.10987400000000	0.00000000000000	0.00000000000000	0.00000000000000	0.00000000000000	0.00000000000000	0.00000000000000	0.00000000000000	12.71267400000000	0.00000000000000	0.00000000000000	0.00000000000000	0.00000000000000	
17.77493700000000	-16.56535000000000	679.00073799999996	30.67846200000000	0.10173900000000	0.00000000000000	0.10988600000000	0.00000000000000	0.00000000000000	0.00000000000000	0.00000000000000	0.00000000000000	0.00000000000000	0.00000000000000	12.88286700000000	0.00000000000000	0.00000000000000	0.00000000000000	0.00000000000000	
17.77660400000000	-17.33186700000000	680.40312800000004	30.69140100000000	0.10067900000000	0.00000000000000	0.10989800000000	0.00000000000000	0.00000000000000	0.00000000000000	0.00000000000000	0.00000000000000	0.00000000000000	0.00000000000000	13.05447400000000	0.00000000000000	0.00000000000000	0.00000000000000	0.00000000000000	
17.77827000000000	-18.10101600000000	681.85141799999997	30.70665500000000	0.09961900000000	0.00000000000000	0.10990900000000	0.00000000000000	0.00000000000000	0.00000000000000	0.00000000000000	0.00000000000000	0.00000000000000	0.00000000000000	13.22734900000000	0.00000000000000	0.00000000000000	0.00000000000000	0.00000000000000	
17.77993700000000	-18.87234200000000	683.34618699999999	30.72433300000000	0.09855700000000	0.00000000000000	0.10992000000000	0.00000000000000	0.00000000000000	0.00000000000000	0.00000000000000	0.00000000000000	0.00000000000000	0.00000000000000	13.40134200000000	0.00000000000000	0.00000000000000	0.00000000000000	0.00000000000000	
17.78160100000000	-19.64538300000000	684.88794099999996	30.74454000000000	0.09749400000000	0.00000000000000	0.10992900000000	0.00000000000000	0.00000000000000	0.00000000000000	0.00000000000000	0.00000000000000	0.00000000000000	0.00000000000000	13.57630200000000	0.00000000000000	0.00000000000000	0.00000000000000	0.00000000000000	
17.78326600000000	-20.41967600000000	686.47709799999996	30.76737700000000	0.09643100000000	0.00000000000000	0.10993800000000	0.00000000000000	0.00000000000000	0.00000000000000	0.00000000000000	0.00000000000000	0.00000000000000	0.00000000000000	13.75207400000000	0.00000000000000	0.00000000000000	0.00000000000000	0.00000000000000	
